<?xml version="1.0" encoding="utf-8"?>
<!-- Generator: Adobe Illustrator 16.0.4, SVG Export Plug-In . SVG Version: 6.00 Build 0)  -->
<!DOCTYPE svg PUBLIC "-//W3C//DTD SVG 1.1//EN" "http://www.w3.org/Graphics/SVG/1.1/DTD/svg11.dtd">
<svg version="1.1" id="Layer_1" xmlns="http://www.w3.org/2000/svg" xmlns:xlink="http://www.w3.org/1999/xlink" x="0px" y="0px"
	 width="40px" height="40px" viewBox="0 0 40 40" enable-background="new 0 0 40 40" xml:space="preserve">
<style type="text/css">
	.st0{fill:#FFFFFF;}
</style>
<g>
	<defs>
		<rect id="SVGID_1_" width="40" height="40"/>
	</defs>
	<clipPath id="SVGID_2_">
		<use xlink:href="#SVGID_1_"  overflow="visible"/>
	</clipPath>
	<path class="st0" d="M17.5,19L6,30.5c-2.3-3-3.5-6.6-3.5-10.5c0-8.8,6.5-16.1,15-17.3V19z M0,20c0,5.5,2.2,10.5,5.9,14.1L20,20V0
		C9,0,0,9,0,20"/>
	<path class="st0" d="M22.7,10.8v2.5h16.1c-0.3-0.9-0.8-1.7-1.2-2.5H22.7z M22.7,15.8v2.5H40c-0.1-0.9-0.3-1.7-0.5-2.5H22.7z
		 M22.7,8.3h13.2c-0.7-0.9-1.5-1.7-2.3-2.5H22.7V8.3z M22.7,3.3V0.8c2.7,0.3,5.2,1.2,7.4,2.5H22.7z"/>
	<path class="st0" d="M22.3,21.3L7.8,35.8c3.4,2.6,7.6,4.2,12.3,4.2c10.6,0,19.3-8.2,19.9-18.7H22.3z"/>
</g>
</svg>
