<?xml version="1.0" encoding="utf-8"?>
<!-- Generator: Adobe Illustrator 16.0.4, SVG Export Plug-In . SVG Version: 6.00 Build 0)  -->
<!DOCTYPE svg PUBLIC "-//W3C//DTD SVG 1.1//EN" "http://www.w3.org/Graphics/SVG/1.1/DTD/svg11.dtd">
<svg version="1.1" id="Layer_1" xmlns="http://www.w3.org/2000/svg" xmlns:xlink="http://www.w3.org/1999/xlink" x="0px" y="0px"
	 width="40px" height="40px" viewBox="0 0 40 40" enable-background="new 0 0 40 40" xml:space="preserve">
<path fill="#FFFFFF" d="M17.854,2.11c-8.656,0-15.7,7.079-15.7,15.782c0,8.338,6.466,15.185,14.624,15.744V17.893
	c0-0.582,0.481-1.056,1.076-1.056h15.666C32.978,8.624,26.158,2.11,17.854,2.11 M17.854,35.783C8.01,35.783,0,27.757,0,17.893
	C0,8.026,8.01,0,17.854,0c9.847,0,17.854,8.026,17.854,17.893c0,0.581-0.481,1.055-1.076,1.055h-15.7v15.781
	C18.933,35.311,18.451,35.783,17.854,35.783"/>
<path fill="#FFFFFF" d="M23.223,23.163v14.689c7.81-0.534,14.07-6.835,14.589-14.689H23.223z M22.146,40
	c-0.595,0-1.076-0.474-1.076-1.055V22.108c0-0.28,0.112-0.548,0.315-0.746c0.202-0.198,0.476-0.309,0.761-0.309h16.778
	c0.594,0,1.076,0.472,1.076,1.055C40,31.974,31.991,40,22.146,40"/>
<path fill="#FFFFFF" d="M30.335,30.752c0-0.232-0.067-0.407-0.197-0.522c-0.132-0.117-0.355-0.207-0.669-0.269v1.666
	C30.044,31.538,30.335,31.245,30.335,30.752 M27.825,27.849c0,0.238,0.066,0.415,0.197,0.531c0.132,0.113,0.338,0.209,0.619,0.279
	v-1.695C28.099,27.058,27.825,27.354,27.825,27.849 M28.642,32.678c-0.715-0.07-1.242-0.28-1.585-0.627
	c-0.34-0.346-0.531-0.822-0.569-1.427h1.229c0.033,0.321,0.131,0.56,0.291,0.713c0.16,0.155,0.373,0.251,0.635,0.29v-1.793
	c-0.734-0.108-1.26-0.316-1.575-0.622c-0.313-0.305-0.47-0.734-0.47-1.294c0-0.534,0.183-0.983,0.55-1.345
	c0.367-0.362,0.866-0.574,1.495-0.631v-0.841h0.827v0.841c0.637,0.057,1.126,0.241,1.47,0.553c0.346,0.312,0.541,0.77,0.587,1.374
	h-1.22c-0.08-0.496-0.359-0.79-0.837-0.886v1.812c0.739,0.095,1.278,0.29,1.613,0.585c0.334,0.296,0.503,0.701,0.503,1.215
	c0,0.599-0.193,1.081-0.578,1.449c-0.382,0.371-0.896,0.586-1.538,0.643v1.233h-0.827V32.678z"/>
</svg>
