<?xml version="1.0" encoding="utf-8"?>
<!-- Generator: Adobe Illustrator 16.0.4, SVG Export Plug-In . SVG Version: 6.00 Build 0)  -->
<!DOCTYPE svg PUBLIC "-//W3C//DTD SVG 1.1//EN" "http://www.w3.org/Graphics/SVG/1.1/DTD/svg11.dtd">
<svg version="1.1" id="Layer_1" xmlns="http://www.w3.org/2000/svg" xmlns:xlink="http://www.w3.org/1999/xlink" x="0px" y="0px"
	 width="179px" height="38.107px" viewBox="0 0 179 38.107" enable-background="new 0 0 179 38.107" xml:space="preserve">
<g>
	<defs>
		<rect id="SVGID_1_" width="179" height="38.107"/>
	</defs>

	<g>
		<rect x="91.402" y="1.08" fill="#FF0000" width="3.283" height="36.07"/>
		<g>
			<path fill="#FF0000" d="M57.017,37.161c2.552-3.464,4.061-7.743,4.061-12.376c0-11.528-9.35-20.879-20.878-20.879
				c-11.531,0-20.882,9.351-20.882,20.879c0,4.63,1.507,8.912,4.058,12.376h4.341c-3.152-3.179-5.098-7.546-5.098-12.376
				c0-9.709,7.87-17.58,17.581-17.58c9.709,0,17.583,7.871,17.583,17.58c0,4.828-1.946,9.199-5.093,12.376H57.017z"/>
			<path fill="#FF0000" d="M154.592,25.768L152.41,5.877l-2.015,19.891H154.592z M158.948,37.15h-3.207l-0.85-8.129h-4.801
				l-0.782,8.129h-3.272l3.695-36.07h5.007L158.948,37.15z"/>
			<path fill="#FF0000" d="M119.744,32.568c0,1.624-0.955,2.456-2.049,2.456c-1.092,0-2.05-0.832-2.05-2.456V5.324
				c0-1.626,0.958-2.458,2.05-2.458c1.094,0,2.049,0.832,2.049,2.458l-0.007,1.303v6.799h3.301V8.184l-0.008-1.517
				c-0.022-4.493-1.782-6.636-5.449-6.636c-3.266,0-5.394,2.316-5.394,5.873v1.324v22.577v1.462c0,4.622,1.796,6.877,5.475,6.877
				c3.667,0,5.376-2.214,5.376-6.971V18.051h-6.059v3.158h2.758V31.37L119.744,32.568z"/>
			<path fill="#FF0000" d="M133.271,31.703v-9.379l-7.516-5.617V6.227c0-4.12,1.854-6.227,5.482-6.227
				c3.687,0,5.362,2.092,5.388,6.721l0.009,1.438v5.317h-3.363V6.345l-0.008-1.021c0-1.626-0.948-2.458-2.027-2.458
				c-1.082,0-2.031,0.832-2.031,2.458v1.054v8.764l7.43,5.608v10.846c0,4.242-1.891,6.512-5.421,6.512
				c-3.571,0-5.432-2.14-5.452-6.275l-0.006-1.43v-7.059h3.449v8.271v0.951c0,1.626,0.949,2.458,2.031,2.458
				c1.079,0,2.027-0.832,2.027-2.458L133.271,31.703z"/>
			<path fill="#FF0000" d="M66.559,3.917v14.286h1.16c2.123,0,3.123-0.973,3.123-3.047v-7.35c0-2.961-0.688-3.89-2.877-3.89H66.559z
				 M74.835,37.15h-3.289c-0.447-1.215-0.646-2.355-0.665-3.881l-0.026-1.846l-0.013-0.934v-7.043c0-1.479-0.897-2.149-1.939-2.149
				h-2.344V37.15h-3.217V1.08h4.201c4.715,0,6.535,1.725,6.535,6.342v6.771c0,3.035-0.511,4.309-2.885,5.183
				c0.035,0.011,0.068,0.024,0.1,0.036c2.244,0.651,2.749,1.506,2.775,4.351l0.01,1.308v6.585
				C74.078,34.057,74.257,35.354,74.835,37.15"/>
			<path fill="#FF0000" d="M163.025,3.917v14.286h1.154c2.13,0,3.127-0.973,3.127-3.047v-7.35c0-2.961-0.684-3.89-2.876-3.89
				H163.025z M171.302,37.15h-3.289c-0.45-1.215-0.646-2.355-0.667-3.881l-0.03-1.846l-0.009-0.934v-7.043
				c0-1.479-0.899-2.149-1.938-2.149h-2.343V37.15h-3.221V1.08h4.203c4.717,0,6.532,1.725,6.532,6.342v6.771
				c0,3.035-0.508,4.309-2.884,5.183c0.036,0.011,0.067,0.024,0.103,0.036c2.244,0.651,2.748,1.506,2.773,4.351l0.008,1.308v6.585
				C170.54,34.057,170.721,35.354,171.302,37.15"/>
			<polygon fill="#FF0000" points="109.211,1.08 109.211,37.15 105.773,37.15 100.861,15.242 100.861,37.15 97.637,37.15 
				97.637,1.08 100.602,1.08 105.986,24.973 105.986,1.08 			"/>
			<path fill="#FF0000" d="M172.836,4.169c0-1.608,1.307-2.915,2.915-2.915c1.607,0,2.913,1.307,2.913,2.915
				c0,1.606-1.306,2.915-2.913,2.915C174.143,7.084,172.836,5.775,172.836,4.169 M172.505,4.169c0,1.79,1.454,3.247,3.246,3.247
				S179,5.959,179,4.169c0-1.792-1.457-3.251-3.249-3.251S172.505,2.377,172.505,4.169"/>
			<path fill="#FF0000" d="M175.042,4.06h0.955c0.398,0,0.681-0.126,0.681-0.552c0-0.425-0.282-0.557-0.681-0.557h-0.955V4.06z
				 M174.616,2.582h1.45c0.506,0,1.032,0.195,1.032,0.926c0,0.409-0.186,0.806-0.743,0.895l0.882,1.387h-0.511l-0.866-1.36h-0.818
				v1.36h-0.426V2.582z"/>
		</g>
		<polygon fill="#FF0000" points="136.598,1.08 147.068,1.08 147.068,4.084 143.508,4.084 143.508,37.15 140.211,37.15 
			140.211,4.084 136.598,4.084 		"/>
		<polygon fill="#FF0000" points="88.406,1.08 88.406,37.15 84.969,37.15 80.054,15.242 80.054,37.15 76.829,37.15 76.829,1.08 
			79.798,1.08 85.18,24.973 85.18,1.08 		"/>
		<polygon fill="#FF0000" points="11.601,1.08 8.632,22.824 5.489,1.08 0,1.08 0,37.15 3.245,37.15 3.245,6.231 7.162,37.15 
			9.844,37.15 13.822,6.231 13.822,37.15 17.046,37.15 17.046,1.08 		"/>
	</g>
</g>
</svg>