<?xml version="1.0" encoding="utf-8"?>
<!-- Generator: Adobe Illustrator 21.1.0, SVG Export Plug-In . SVG Version: 6.00 Build 0)  -->
<svg version="1.1" id="Layer_1" xmlns="http://www.w3.org/2000/svg" xmlns:xlink="http://www.w3.org/1999/xlink" x="0px" y="0px"
	 viewBox="0 0 32 40" style="enable-background:new 0 0 32 40;" xml:space="preserve">
<style type="text/css">
	.st0{fill:none;stroke:#FFFFFF;}
	.st1{fill:#FFFFFF;}
</style>
<g>
	<rect class="st0" width="32" height="40"/>
	<path class="st1" d="M7.2,9.7c1.3,0,2.4-1.1,2.4-2.4c0-1.3-1.1-2.4-2.4-2.4S4.8,6,4.8,7.3C4.8,8.6,5.9,9.7,7.2,9.7"/>
	<path class="st1" d="M7.2,16.9c1.3,0,2.4-1.1,2.4-2.4c0-1.3-1.1-2.4-2.4-2.4s-2.4,1.1-2.4,2.4C4.8,15.8,5.9,16.9,7.2,16.9"/>
	<path class="st1" d="M7.2,24.1c1.3,0,2.4-1.1,2.4-2.4c0-1.3-1.1-2.4-2.4-2.4s-2.4,1.1-2.4,2.4C4.8,23,5.9,24.1,7.2,24.1"/>
	<rect x="12.8" y="6.5" class="st1" width="14.4" height="1.6"/>
	<rect x="12.8" y="13.7" class="st1" width="14.4" height="1.6"/>
	<rect x="12.8" y="20.9" class="st1" width="14.4" height="1.6"/>
</g>
</svg>
