<?xml version="1.0" encoding="utf-8"?>
<!-- Generator: Adobe Illustrator 16.0.4, SVG Export Plug-In . SVG Version: 6.00 Build 0)  -->
<!DOCTYPE svg PUBLIC "-//W3C//DTD SVG 1.1//EN" "http://www.w3.org/Graphics/SVG/1.1/DTD/svg11.dtd">
<svg version="1.1" id="Layer_1" xmlns="http://www.w3.org/2000/svg" xmlns:xlink="http://www.w3.org/1999/xlink" x="0px" y="0px"
	 width="11px" height="14px" viewBox="0 0 11 14" enable-background="new 0 0 11 14" xml:space="preserve">
<path fill="#FFFFFF" d="M0.478,0v0.957h9.566v11.478H1.435V5.261H0.478v8.131H11V0H0.478z M1.914,2.63
	c0-0.131-0.107-0.239-0.239-0.239H0.958v0.478h0.716C1.807,2.871,1.914,2.764,1.914,2.63z M1.674,4.783h3.179
	C4.725,5.325,4.885,6.144,5.151,7.162L5.07,7.364c-0.209,0.51-0.472,1.02-0.704,1.472c-0.951,1.864-1.692,2.867-2.185,2.938
	L2.18,11.754c-0.012-0.229,0.418-0.829,0.997-1.306l0.32-0.299l-0.428,0.23c-0.728,0.434-1.092,0.868-1.15,1.158
	c-0.018,0.089-0.005,0.191,0.071,0.234l0.186,0.09c0.507,0.256,1.13-0.412,1.958-1.861c0.844-0.277,1.894-0.538,2.854-0.68
	c0.854,0.488,1.838,0.723,2.216,0.621c0.067-0.021,0.147-0.074,0.187-0.131l0.07-0.234L9.331,9.7
	C9.093,9.812,8.337,9.626,7.562,9.246C8.23,9.178,8.79,9.173,9.088,9.269C9.466,9.39,9.466,9.513,9.461,9.536l0.021-0.139
	c-0.015-0.092-0.039-0.174-0.107-0.24C9.234,9.017,8.887,8.946,8.414,8.942C8.062,8.937,7.634,8.97,7.17,9.035
	c-0.213-0.121-0.436-0.257-0.611-0.42C6.109,8.194,5.732,7.609,5.496,6.959l0.047-0.186C5.608,6.48,5.655,5.514,5.655,5.514
	L5.44,6.351l-0.07,0.22C5.229,6.072,5.157,5.588,5.157,5.223c0-0.1,0.007-0.285,0.034-0.441H5.5l0.072,0.143
	c0.086,0.188,0.08,0.404,0.08,0.54c0,0,0.091-0.333,0.07-0.529L5.678,4.782h1.97V1.434H0v3.348L1.674,4.783z M5.262,3.348V1.913
	h1.435v0.478H5.74v0.478h0.479v0.478H5.74v0.957H5.263L5.262,3.348z M5.319,7.536c0.248,0.498,0.588,0.971,1.037,1.35L6.67,9.125
	C5.855,9.276,5.002,9.489,4.209,9.821l0.458-0.832C4.975,8.408,5.162,7.959,5.319,7.536z M2.87,3.819V1.914h0.717
	c0.66,0,1.196,0.536,1.196,1.196c0,0.66-0.536,1.195-1.196,1.195H2.87V3.819z M0.478,3.348V1.913h1.196
	c0.187,0,0.351,0.072,0.478,0.186C2.298,2.231,2.39,2.418,2.39,2.63S2.297,3.031,2.151,3.164C2.025,3.276,1.859,3.348,1.674,3.348
	H0.958v0.957H0.479L0.478,3.348z M4.065,3.642C4.21,3.51,4.304,3.322,4.304,3.11c0-0.213-0.095-0.4-0.239-0.531
	C3.939,2.464,3.771,2.392,3.588,2.392H3.349v1.435h0.239C3.772,3.826,3.939,3.755,4.065,3.642z"/>
</svg>
