<?xml version="1.0" encoding="utf-8"?>
<!-- Generator: Adobe Illustrator 16.0.4, SVG Export Plug-In . SVG Version: 6.00 Build 0)  -->
<!DOCTYPE svg PUBLIC "-//W3C//DTD SVG 1.1//EN" "http://www.w3.org/Graphics/SVG/1.1/DTD/svg11.dtd">
<svg version="1.1" id="Layer_1" xmlns="http://www.w3.org/2000/svg" xmlns:xlink="http://www.w3.org/1999/xlink" x="0px" y="0px"
	 width="35px" height="35px" viewBox="0 0 35 35" enable-background="new 0 0 35 35" xml:space="preserve">
	 
	<defs><style>.cls-1{fill:#fff;}</style></defs><title>icon-pin_1</title><g id="Layer_2" data-name="Layer 2"><g id="Layer_1-2" data-name="Layer 1"><polygon class="cls-1" points="5.09 28.34 0 35.15 6.81 30.06 11.65 25.22 9.94 23.5 5.09 28.34"/><path class="cls-1" d="M24,21.85,23.11,21l6.35-7.55a3.65,3.65,0,0,0,5.14,0c1.5-1.5-.17-5.59-3.72-9.14S23.24-.95,21.75.55a3.63,3.63,0,0,0,0,5.14L14.19,12l-.88-.88c-2.39-2.39-5.81-.66-7.23.75S7.22,18.46,12,23.2s9.78,7.37,11.28,5.87,3.14-4.83.75-7.22"/></g></g></svg>