<?xml version="1.0" encoding="utf-8"?>
<!-- Generator: Adobe Illustrator 16.0.4, SVG Export Plug-In . SVG Version: 6.00 Build 0)  -->
<!DOCTYPE svg PUBLIC "-//W3C//DTD SVG 1.1//EN" "http://www.w3.org/Graphics/SVG/1.1/DTD/svg11.dtd">
<svg version="1.1" id="Layer_1" xmlns="http://www.w3.org/2000/svg" xmlns:xlink="http://www.w3.org/1999/xlink" x="0px" y="0px"
	 width="26px" height="40px" viewBox="0 0 26 40" enable-background="new 0 0 26 40" xml:space="preserve">
<style type="text/css">
	.st0{fill:#FFFFFF;}
</style>
<path class="st0" d="M22.8,0c-6.5,0-13,0-19.6,0C1.4,0,0,1.5,0,3.2v31.6c0,1.8,1.2,4.4,3.1,4.6c8.6,0.7,11.7,0.7,19.8,0
	c1.8-0.2,3.1-2.8,3.1-4.6V3.2C26,1.5,24.6,0,22.8,0z M23.9,29.9c0,0.6-0.5,1.1-1.1,1.1H3.2c-0.6,0-1.1-0.5-1.1-1.1V3.2
	c0-0.6,0.5-1.1,1.1-1.1h19.6c0.6,0,1.1,0.5,1.1,1.1V29.9z"/>
<g>
	<defs>
		<rect id="SVGID_1_" width="26" height="40"/>
	</defs>
	<clipPath id="SVGID_2_">
		<use xlink:href="#SVGID_1_"  overflow="visible"/>
	</clipPath>
	<path class="st0" d="M8.6,17.3c2.5-2.4,6.4-2.3,8.7,0.2c0.3,0.3,0.9,0.4,1.2,0c0.2-0.2,0.3-0.4,0.3-0.6c0-0.2-0.1-0.4-0.2-0.6
		c-3-3.2-8-3.3-11.2-0.2c-0.3,0.3-0.4,0.9,0,1.2C7.7,17.7,8.3,17.7,8.6,17.3"/>
	<path class="st0" d="M10.9,20.3c1.2-1.1,3-1.1,4.1,0.1c0.3,0.3,0.9,0.4,1.2,0c0.2-0.2,0.3-0.4,0.3-0.6c0-0.2-0.1-0.4-0.2-0.6
		c-1.8-1.8-4.7-1.9-6.5-0.1c-0.3,0.3-0.4,0.9,0,1.2C10,20.7,10.6,20.7,10.9,20.3"/>
	<path class="st0" d="M5.1,13.1c-0.3,0.3-0.4,0.9,0,1.2c0.3,0.3,0.9,0.4,1.2,0c3.8-3.6,9.8-3.5,13.4,0.3c0.3,0.3,0.9,0.4,1.2,0
		c0.2-0.2,0.3-0.4,0.3-0.6c0-0.2-0.1-0.4-0.2-0.6C16.7,9,9.6,8.8,5.1,13.1"/>
	<path class="st0" d="M13,24c0.7,0,1.3-0.6,1.3-1.3c0-0.7-0.6-1.3-1.3-1.3c-0.7,0-1.3,0.6-1.3,1.3C11.7,23.4,12.3,24,13,24"/>
</g>
</svg>
