<?xml version="1.0" encoding="utf-8"?>
<!-- Generator: Adobe Illustrator 21.1.0, SVG Export Plug-In . SVG Version: 6.00 Build 0)  -->
<svg version="1.1" id="Layer_1" xmlns="http://www.w3.org/2000/svg" xmlns:xlink="http://www.w3.org/1999/xlink" x="0px" y="0px"
	 viewBox="0 0 50 40" style="enable-background:new 0 0 50 40;" xml:space="preserve">
<style type="text/css">
	.st0{fill:#FFFFFF;}
</style>
<g>
	<path class="st0" d="M38.2,26.1v-4.7c0-0.4,0.4-0.8,0.8-0.8l9.1,0c0.1,0,0.3-0.1,0.3-0.3V8.3c0-0.1-0.1-0.3-0.3-0.3l-9.1,0
		c-0.2,0-0.4-0.1-0.6-0.2c-0.2-0.2-0.2-0.4-0.2-0.6V2.4L22.3,14.3L38.2,26.1z M50,8.3v12.1c0,1-0.8,1.9-1.9,1.9l-8.2,0v5.5
		c0,0.3-0.2,0.6-0.4,0.7c-0.3,0.1-0.6,0.1-0.9-0.1L20.5,14.9c-0.4-0.3-0.4-1,0-1.3L38.6,0.2c0.2-0.2,0.6-0.2,0.9-0.1
		c0.3,0.1,0.4,0.4,0.4,0.7v5.6l8.2,0C49.2,6.4,50,7.2,50,8.3"/>
	<path class="st0" d="M11.8,13.9v4.7c0,0.4-0.4,0.8-0.8,0.8l-9.1,0c-0.1,0-0.3,0.1-0.3,0.3v12.1c0,0.1,0.1,0.3,0.3,0.3l9.1,0
		c0.2,0,0.4,0.1,0.6,0.2c0.2,0.2,0.2,0.4,0.2,0.6v4.7l15.9-11.8L11.8,13.9z M0,31.7V19.7c0-1,0.8-1.9,1.9-1.9l8.2,0v-5.5
		c0-0.3,0.2-0.6,0.4-0.7c0.3-0.1,0.6-0.1,0.9,0.1l18.1,13.5c0.4,0.3,0.4,1,0,1.3L11.4,39.8c-0.2,0.2-0.6,0.2-0.9,0.1
		c-0.3-0.1-0.4-0.4-0.4-0.7v-5.6l-8.2,0C0.8,33.6,0,32.8,0,31.7"/>
</g>
</svg>
