<?xml version="1.0" encoding="utf-8"?>
<!-- Generator: Adobe Illustrator 16.0.4, SVG Export Plug-In . SVG Version: 6.00 Build 0)  -->
<!DOCTYPE svg PUBLIC "-//W3C//DTD SVG 1.1//EN" "http://www.w3.org/Graphics/SVG/1.1/DTD/svg11.dtd">
<svg version="1.1" id="Layer_1" xmlns="http://www.w3.org/2000/svg" xmlns:xlink="http://www.w3.org/1999/xlink" x="0px" y="0px"
	 width="50px" height="40px" viewBox="0 0 50 40" enable-background="new 0 0 50 40" xml:space="preserve">
<path fill="#FFFFFF" d="M38.253,26.121v-4.728c0-0.45,0.364-0.815,0.813-0.815l9.044-0.01c0.146,0,0.262-0.117,0.262-0.26V8.253
	c0-0.144-0.116-0.26-0.261-0.26l-9.043,0.01c-0.216,0.001-0.424-0.086-0.575-0.238c-0.153-0.153-0.24-0.36-0.24-0.577V2.439
	L22.384,14.281L38.253,26.121z M50,8.253v12.056c0,1.042-0.848,1.889-1.889,1.889l-8.229,0.01v5.538c0,0.31-0.174,0.591-0.449,0.729
	c-0.274,0.14-0.604,0.11-0.852-0.075L20.535,14.934c-0.413-0.307-0.413-1,0-1.309L38.581,0.162c0.247-0.185,0.577-0.214,0.852-0.075
	c0.275,0.138,0.449,0.42,0.449,0.728v5.556l8.229-0.008C49.152,6.362,50,7.21,50,8.253"/>
<path fill="#FFFFFF" d="M11.746,13.879v4.729c0,0.449-0.363,0.814-0.812,0.816l-9.045,0.01c-0.145,0-0.26,0.116-0.26,0.26v12.054
	c0,0.144,0.116,0.26,0.259,0.26l9.044-0.01c0.215-0.001,0.423,0.086,0.576,0.238c0.152,0.154,0.238,0.361,0.238,0.577v4.749
	l15.87-11.842L11.746,13.879z M0,31.747V19.693c0-1.043,0.847-1.891,1.888-1.891l8.23-0.01v-5.538c0-0.309,0.173-0.591,0.448-0.729
	c0.275-0.14,0.605-0.11,0.852,0.075l18.048,13.465c0.411,0.307,0.411,1,0,1.308L11.418,39.839c-0.246,0.185-0.576,0.213-0.852,0.075
	c-0.275-0.14-0.448-0.421-0.448-0.729v-5.557l-8.229,0.009C0.847,33.638,0,32.789,0,31.747"/>
</svg>
