<?xml version="1.0" encoding="utf-8"?>
<!-- Generator: Adobe Illustrator 16.0.4, SVG Export Plug-In . SVG Version: 6.00 Build 0)  -->
<!DOCTYPE svg PUBLIC "-//W3C//DTD SVG 1.1//EN" "http://www.w3.org/Graphics/SVG/1.1/DTD/svg11.dtd">
<svg version="1.1" id="Layer_1" xmlns="http://www.w3.org/2000/svg" xmlns:xlink="http://www.w3.org/1999/xlink" x="0px" y="0px"
	 width="30px" height="40px" viewBox="0 0 30 40" enable-background="new 0 0 30 40" xml:space="preserve">
	 <style type="text/css">
	.st0{fill:#FFFFFF;}
</style>
<g>
	<defs>
		<rect id="SVGID_1_" width="30" height="40"/>
	</defs>
	<clipPath id="SVGID_2_">
		<use xlink:href="#SVGID_1_"  overflow="visible"/>
	</clipPath>
		<path class="st0" d="M27.2,37.9c-3.9,1.4-8,2.1-12.1,2.1c-4.1,0-8.2-0.7-12.2-2.1C1.3,37.3,0,35.3,0,33.7c0.2-2.7,0.5-5.4,0.7-8.2
			c0-0.8,0.3-1.5,0.8-2c0,0,0,0,0,0C3.3,21.9,9,18.7,9,18.7c1.2,3.5,2.4,7,3.7,10.6c0.6-3.2,1.2-6.7,1.1-6.8l-0.3-0.6
			c-0.3-0.5-0.1-0.8,0.3-0.8l0.4,0c0.4,0,1.2,0,1.6,0l0.4,0c0.4,0,0.6,0.4,0.3,0.8l-0.3,0.6c-0.1,0.1,0.5,3.6,1.1,6.8
			c1.2-3.6,2.5-7.1,3.7-10.6c0,0,5.7,3.1,7.6,4.7c0,0,0,0,0,0c0.5,0.5,0.8,1.2,0.8,2c0.2,2.8,0.5,5.5,0.7,8.2
			C30,35.3,28.7,37.3,27.2,37.9z"/>
		<ellipse class="st0" cx="15" cy="9.4" rx="7.5" ry="9.4"/>
</g>
</svg>
