<?xml version="1.0" encoding="utf-8"?>
<!-- Generator: Adobe Illustrator 16.0.4, SVG Export Plug-In . SVG Version: 6.00 Build 0)  -->
<!DOCTYPE svg PUBLIC "-//W3C//DTD SVG 1.1//EN" "http://www.w3.org/Graphics/SVG/1.1/DTD/svg11.dtd">
<svg version="1.1" id="Layer_1" xmlns="http://www.w3.org/2000/svg" xmlns:xlink="http://www.w3.org/1999/xlink" x="0px" y="0px"
	 width="32px" height="40px" viewBox="0 0 32 40" enable-background="new 0 0 32 40" xml:space="preserve">
<style type="text/css">
	.st0{fill:none;stroke:#FFFFFF;stroke-width:1.6;}
	.st1{fill:#FFFFFF;}
</style>
<g>
	<defs>
		<rect id="SVGID_1_" width="32" height="40"/>
	</defs>
	<clipPath id="SVGID_2_">
		<use xlink:href="#SVGID_1_"  overflow="visible"/>
	</clipPath>
	<rect x="0.9" y="0.9" class="st0" width="30.2" height="38.2"/>
	<path class="st1" d="M7.2,9.6c1.3,0,2.4-1.1,2.4-2.4c0-1.3-1.1-2.4-2.4-2.4S4.8,5.9,4.8,7.2C4.8,8.5,5.9,9.6,7.2,9.6"/>
	<path class="st1" d="M7.2,16.8c1.3,0,2.4-1.1,2.4-2.4c0-1.3-1.1-2.4-2.4-2.4s-2.4,1.1-2.4,2.4C4.8,15.7,5.9,16.8,7.2,16.8"/>
	<path class="st1" d="M7.2,24c1.3,0,2.4-1.1,2.4-2.4c0-1.3-1.1-2.4-2.4-2.4s-2.4,1.1-2.4,2.4C4.8,22.9,5.9,24,7.2,24"/>
	<rect x="12.8" y="6.4" class="st1" width="14.4" height="1.6"/>
	<rect x="12.8" y="13.6" class="st1" width="14.4" height="1.6"/>
	<rect x="12.8" y="20.8" class="st1" width="14.4" height="1.6"/>
</g>
</svg>
