<?xml version="1.0" encoding="utf-8"?>
<!-- Generator: Adobe Illustrator 16.0.4, SVG Export Plug-In . SVG Version: 6.00 Build 0)  -->
<!DOCTYPE svg PUBLIC "-//W3C//DTD SVG 1.1//EN" "http://www.w3.org/Graphics/SVG/1.1/DTD/svg11.dtd">
<svg version="1.1" id="Layer_1" xmlns="http://www.w3.org/2000/svg" xmlns:xlink="http://www.w3.org/1999/xlink" x="0px" y="0px"
	 width="43px" height="35px" viewBox="0 0 43 35" enable-background="new 0 0 43 35" xml:space="preserve">
<g>
	<defs>
		<rect id="SVGID_1_" width="43" height="35"/>
	</defs>
	<clipPath id="SVGID_2_">
		<use xlink:href="#SVGID_1_"  overflow="visible"/>
	</clipPath>
	<path clip-path="url(#SVGID_2_)" fill="#FFFFFF" d="M36.212,26.57c-2.676,0.083-9.465,0.622-13.65,3.777V6.25
		c1.361-1.064,6.544-4.665,13.65-4.007V26.57z M6.65,26.57V2.243c7.201-0.661,12.46,3.071,13.719,4.063v24.091
		C16.189,27.196,9.339,26.654,6.65,26.57 M41.904,5.611h-3.498c-0.001,0-0.001,0-0.002,0V1.286c0-0.537-0.399-0.992-0.938-1.069
		c-8.098-1.161-14.055,2.655-16.037,4.16c-1.98-1.504-7.936-5.321-16.034-4.16C4.856,0.294,4.457,0.749,4.457,1.286v4.326H1.096
		C0.491,5.611,0,6.095,0,6.691v27.229C0,34.515,0.491,35,1.096,35h15.912c0.605,0,1.096-0.485,1.096-1.079
		c0-0.598-0.49-1.081-1.096-1.081H2.192V7.772h2.265v19.865c0,0.289,0.119,0.565,0.328,0.769c0.211,0.204,0.502,0.303,0.787,0.31
		c0.121,0.004,11.086-0.125,14.813,4.709c0.208,0.27,0.53,0.428,0.873,0.428h0.343c0.343,0,0.666-0.158,0.874-0.428
		c3.728-4.834,14.7-4.709,14.812-4.709c0.294-0.007,0.578-0.106,0.787-0.31c0.21-0.203,0.329-0.479,0.329-0.769V7.772
		c0.001,0,0.001,0,0.002,0h2.4V32.84H25.992c-0.605,0-1.097,0.483-1.097,1.081c0,0.594,0.491,1.079,1.097,1.079h15.912
		C42.509,35,43,34.515,43,33.921V6.691C43,6.095,42.509,5.611,41.904,5.611"/>
	<path clip-path="url(#SVGID_2_)" fill="#FFFFFF" d="M17.219,12.498c-0.189,0-0.382-0.047-0.559-0.15
		c-3.373-1.973-6.618-1.699-6.651-1.698c-0.614,0.059-1.138-0.38-1.192-0.974C8.76,9.081,9.201,8.555,9.806,8.5
		c0.159-0.018,3.992-0.335,7.975,1.99c0.519,0.304,0.691,0.967,0.384,1.48C17.958,12.311,17.594,12.498,17.219,12.498"/>
	<path clip-path="url(#SVGID_2_)" fill="#FFFFFF" d="M17.219,17.764c-0.189,0-0.382-0.048-0.559-0.15
		c-3.373-1.973-6.618-1.701-6.651-1.699c-0.614,0.057-1.138-0.38-1.192-0.975c-0.057-0.594,0.385-1.119,0.989-1.176
		c0.159-0.016,3.992-0.335,7.975,1.99c0.519,0.305,0.691,0.969,0.384,1.48C17.958,17.575,17.594,17.764,17.219,17.764"/>
	<path clip-path="url(#SVGID_2_)" fill="#FFFFFF" d="M17.219,23.236c-0.189,0-0.382-0.048-0.559-0.15
		c-3.373-1.973-6.618-1.7-6.651-1.698c-0.614,0.061-1.138-0.381-1.192-0.976c-0.057-0.593,0.385-1.119,0.989-1.175
		c0.159-0.016,3.992-0.336,7.975,1.989c0.519,0.306,0.691,0.968,0.384,1.481C17.958,23.049,17.594,23.236,17.219,23.236"/>
	<path clip-path="url(#SVGID_2_)" fill="#FFFFFF" d="M25.987,12.498c-0.375,0-0.74-0.188-0.944-0.527
		c-0.309-0.514-0.137-1.177,0.384-1.48c3.982-2.327,7.813-2.008,7.975-1.99c0.602,0.055,1.046,0.581,0.991,1.176
		c-0.058,0.593-0.587,1.025-1.191,0.975c-0.066-0.005-3.325-0.248-6.655,1.697C26.369,12.451,26.178,12.498,25.987,12.498"/>
	<path clip-path="url(#SVGID_2_)" fill="#FFFFFF" d="M25.987,17.764c-0.375,0-0.74-0.188-0.944-0.529
		c-0.309-0.512-0.137-1.176,0.384-1.48c3.982-2.325,7.813-2.006,7.975-1.99c0.602,0.057,1.046,0.582,0.991,1.176
		c-0.058,0.594-0.587,1.025-1.191,0.977c-0.066-0.007-3.325-0.248-6.655,1.697C26.369,17.716,26.178,17.764,25.987,17.764"/>
	<path clip-path="url(#SVGID_2_)" fill="#FFFFFF" d="M25.987,23.236c-0.375,0-0.74-0.188-0.944-0.528
		c-0.309-0.514-0.137-1.176,0.384-1.481c3.982-2.325,7.813-2.005,7.975-1.989c0.602,0.056,1.046,0.582,0.991,1.175
		c-0.058,0.594-0.587,1.025-1.191,0.976c-0.066-0.006-3.325-0.247-6.655,1.698C26.369,23.188,26.178,23.236,25.987,23.236"/>
</g>
</svg>
