<?xml version="1.0" encoding="utf-8"?>
<!-- Generator: Adobe Illustrator 16.0.4, SVG Export Plug-In . SVG Version: 6.00 Build 0)  -->
<!DOCTYPE svg PUBLIC "-//W3C//DTD SVG 1.1//EN" "http://www.w3.org/Graphics/SVG/1.1/DTD/svg11.dtd">
<svg version="1.1" xmlns="http://www.w3.org/2000/svg" xmlns:xlink="http://www.w3.org/1999/xlink" x="0px" y="0px" width="182px"
	 height="28px" viewBox="0 0 182 28" enable-background="new 0 0 182 28" xml:space="preserve">
<g id="text">
	<linearGradient id="SVGID_1_" gradientUnits="userSpaceOnUse" x1="89.8218" y1="0.7529" x2="89.8218" y2="26.1886">
		<stop  offset="0" style="stop-color:#004B8D"/>
		<stop  offset="0.921" style="stop-color:#48B7DD"/>
	</linearGradient>
	<path fill="url(#SVGID_1_)" d="M57.519,17.674c0.347-4.138-2.251-5.934-5.723-6.986l-1.653-0.507
		c-1.12-0.373-2.869-0.95-2.745-2.442c0.119-1.423,1.806-2.135,3.026-2.135c1.628,0,3.131,0.677,4.266,1.695l1.723-2.886
		l4.694,21.84h6.747l6.256-14.817h0.066l3.259,14.817h7.484l0.51,0.012l1.766-4.443l9.053-0.004l1.623,4.442l7.007-0.003v-0.004
		h3.481v-8.475h3.763c3.325,0,5.807-0.875,7.325-2.754l-4.324,11.243l6.975-0.003l1.763-4.443l9.054-0.004l1.623,4.442l7.008-0.003
		l-9.409-25.568l-7.176,0.002l-3.892,10.121c0.064-0.541,0.106-1.105,0.106-1.714c0-5.866-3.798-8.409-9.291-8.409h-10.171v16.966
		L95.468,0.689H94.71h-7.124l-6.195,16.513h-0.066L77.686,0.689h-5.291l-6.735,16.513h-0.068L62.529,0.689h-6.917l0.103,0.481
		c-1.838-0.707-3.934-1.128-5.774-1.128c-5.122,0-9.1,3.391-9.532,8.578c-0.414,4.95,2.241,6.036,6.312,7.222
		c1.39,0.408,3.946,1.052,3.791,2.917c-0.15,1.797-1.878,2.575-3.437,2.575c-2.271,0-4.141-1.186-5.678-2.643L38.1,24.047
		c2.459,1.832,5.521,2.917,8.742,2.917c2.577,0,5.316-0.712,7.457-2.407C56.479,22.828,57.306,20.217,57.519,17.674z M128.444,8.593
		h0.066l2.646,8.139l-5.466,0.002L128.444,8.593z M108.358,6.045h1.118c2.577,0,4.782,0.035,4.782,3.256
		c0,3.119-2.376,3.119-4.782,3.119h-1.118V6.045z M91.778,8.593h0.068l2.646,8.139l-5.466,0.002L91.778,8.593z"/>
</g>
<g id="wings">
	<path fill="#004B8D" d="M44.045,0.688H0c0,0,0.096,5.06,15.773,5.06h24.338C40.827,3.691,42.051,1.779,44.045,0.688"/>
	<path fill="#004B8D" d="M135.192,5.747h30.048c15.678,0,15.772-5.06,15.772-5.06h-47.684L135.192,5.747z"/>
	<path fill="#0095D6" d="M137.344,11.596h13.626c15.649,0,15.774-5.061,15.774-5.061H135.48L137.344,11.596z"/>
	<path fill="#0095D6" d="M39.856,6.535H14.269c0,0,0.125,5.061,15.774,5.061h9.455c-0.113-0.786-0.142-1.67-0.056-2.694
		C39.511,8.075,39.652,7.286,39.856,6.535"/>
	<path fill="#4FC6E7" d="M141.853,17.58c9.75,0,10.234-5.06,10.234-5.06h-14.482l1.86,5.06H141.853z"/>
	<path fill="#4FC6E7" d="M39.65,12.378H28.897c0,0,0.486,5.059,10.234,5.059h9.016C44.957,16.423,40.26,15.397,39.65,12.378"/>
</g>
</svg>
