<svg xmlns="http://www.w3.org/2000/svg" width="200" height="117.938" viewBox="0 0 200 117.938"><path d="M197.27 103.696l.624 1.748.626-1.748h.693v2.438h-.446v-1.966l-.677 1.966h-.388l-.684-1.966v1.966h-.444v-2.438h.696zm-3.192.407v-.406h2.08v.406h-.795v2.03h-.484v-2.03h-.803z"/><path fill="#00A0DF" d="M109.818.466h74.41v74.38h-74.41z"/><path d="M58.742 106.626c-3.26 2.225-8.503 6.467-7.926 8.574 0 .003.047.186.19.332.257.288.662.27 1.188-.044.033-.022 3.537-2.342 6.548-8.862m37.29-6.037c-.014.13-.125 1.22-.564 1.22-.117 0-.234-.07-.36-.22-.224-.287-.515-.35-.72-.35-.177 0-.31.042-.313.044-.563.247-1.1.526-1.586.832-.67.43-2.31 1.617-3.057 3.366-.12.285-.215.578-.278.867-.014.06-.027.124-.036.187-.033.173-.05.33-.063.475-.023.17-.188.27-.437.27-.166 0-.355-.05-.516-.132l-.03-.015c-.035-.02-.062-.04-.07-.056-.022-.02-.04-.045-.058-.068l-.03-.043c-.42-.678.32-2.58 1.085-4.187-.75.733-2.834 2.537-5.102 2.537h-.05c-.043 0-.137.003-.23-.004-.088 0-.175-.016-.228-.026h-.017c-.098-.016-.184-.038-.19-.04-.53-.176-.866-.54-.994-1.085-.383.635-1.907 2.95-3.935 2.95-.157 0-.313-.016-.467-.043-.03 0-.827-.085-1.14-.7-.242-.472-.125-1.114.343-1.908.39-.664 1.358-2.483 1.14-2.952-.02-.042-.052-.072-.1-.085-.26.148-2.365 1.37-3.964 1.37-.106 0-.206-.004-.302-.016-.19.52-1.84 4.73-4.796 4.73-.114 0-.23-.01-.347-.02-.034-.003-.89-.1-1.27-.81-.31-.584-.2-1.4.337-2.426.015-.023 1.27-1.94 1.2-2.695-.005-.064-.023-.166-.047-.21-.057-.13-.214-.196-.45-.196-.53 0-1.4.328-2.583.977-.04.026-4.553 2.854-5.578 3.864-.28.56-5.41 10.646-9.07 11.442-.07.016-.223.034-.298.034l-.03-.002c-.214-.018-.753-.112-1.098-.62-.39-.564-.412-1.46-.06-2.653.01-.04.042-.14.082-.253.05-.14.13-.334.18-.427.577-1.076 2.927-4.848 9.083-8.317.257-.532.845-1.943.622-2.39-.036-.07-.088-.11-.166-.125-.02-.002-.06-.004-.106-.004-.07 0-.132.002-.175.013-.242.06-1.077.437-3.532 2.658-.054.055-1.39 1.37-2.424 1.37-.37 0-.657-.167-.85-.493-.024-.035-.087-.18-.098-.296-.024-.272.02-.833.576-1.535.05-.066.17-.227.22-.302.2-.34.856-1.505.83-2.248-.002-.176-.013-.304-.03-.39-.09-.44-.383-.546-.866-.33-.014.01-2.43 1.58-4.304 2.968-.022.013-.483.31-1.024.31-.523 0-.927-.27-1.2-.8-.01-.015-.208-.393-.085-.704.06-.144.18-.248.356-.305.067-.022.234-.038.296-.025.506.073 2.724.226 5.207-2.205.097-.096 2.426-2.402 3.323-2.458l.018-.002c.083 0 .368.024.553.303.297.455.18 1.314-.353 2.57-.387.803-1.35 2.98-1.19 3.426.014.033.03.037.034.042l.025.02c-.003 0 .022.023.114.023.297 0 1.316-.293 4.33-2.995.01-.013 1.34-1.335 1.954-2.013.03-.042.845-1.134 1.72-1.134.323 0 .613.15.854.446.005.004.146.162.124.45-.025.387-.312.808-.848 1.257l-.136.1-.095.067c-.26.197-1.154 1.012-1.89 3.43.824-.55 4.763-3.118 7.99-4.085.015-.004.405-.13.874-.13 1.025 0 1.597.595 1.607 1.667 0 .037-.006.157-.024.233-.04.165-.136.475-.36.693-.03.03-.125.1-.165.124l-.032.02c-.068.04-.155.09-.195.12-.337.244-1.45 1.15-1.52 2.528-.003.007-.035.395.15.604.203.22.598.155 1.157-.18.013-.013 2.097-1.587 2.16-3.368-.144-.056-.57-.257-.74-.7-.146-.377-.068-.827.23-1.336.027-.05.058-.097.092-.146l.013-.025c.025-.037.122-.164.208-.23.15-.113.46-.31.84-.31.423 0 .815.228 1.173.677.03.038.133.19.174.3.073.194.176.56.062.943.4.01 2.242-.052 4.705-1.603.01-.01.307-.21.608-.21.266 0 .582.155.596.896 0 .048-.015.188-.04.258-.114.325-.437 1.16-.955 1.956-.473.824-1.125 2.237-.857 2.508.01.013.112.136.37.136.423 0 1.41-.34 3.267-2.63.125-.423 1.11-3.553 1.99-3.553.016 0 .032 0 .044.004.034 0 .26.01.408.24.265.42.1 1.266-.49 2.514 0 .002-.143.31-.263.677l-.018.046c-.065.17-.292.814-.05 1.18.19.293.657.344 1.35.153.634-.197 2.28-.84 3.852-2.52.515-.545 1.04-1.173 1.57-1.86.43-.695.79-1.03 1.094-1.03.09 0 .17.027.245.085.026.02.05.038.074.067.038.03.663.642-1.136 2.923-.035.05-.067.102-.103.15l-.014.027c-.034.05-.073.113-.114.187 2.07-1.415 3.558-2.188 4.312-2.235 0-.003.038-.01.09-.014h.084c.21 0 .9.07.907.94m-53.544.863c-.537 0-1.043.56-1.062.58-.255.26-.5.526-.75.82h-.007l-.02.03c-.14.16-.265.314-.382.454-.768.873-1.36 1.297-1.557 1.07-.076-.087-.145-.312-.062-.887.122-.613.625-2.055.63-2.068.39-1.187.42-2.044.09-2.55-.234-.355-.56-.393-.57-.393-1.345-.148-3.705 1.75-4.917 2.823.992-1.386.476-2.02.456-2.044-.44-.757-2.5-1.103-2.59-1.115-.12-.016-.237-.02-.35-.02-1.512 0-2 1.372-2.003 1.385-.39 1.308-1.2 2.676-1.206 2.69-.78 1.284-1.51 1.615-1.88 1.7-.012.002-.09.012-.177.012-.09 0-.182-.013-.193-.017-.402-.108-.648-.3-.734-.562-.18-.54.368-1.244.375-1.253.97-1.32.684-1.93.516-2.13-.042-.052-.125-.095-.146-.105-.078-.03-.152-.047-.228-.047-.43 0-.6.537-.612.564-.48 1.767-1.4 2.587-1.672 2.8-.043.027-.127.096-.158.122-.624.53-1.122.826-1.57.926 0 0-.148.033-.194.04-.106.014-.218.026-.3.026l-.078.003c-.065 0-.128-.008-.187-.015-.13-.02-.253-.068-.263-.072-.133-.063-.236-.183-.302-.35-.005-.013-.022-.07-.025-.09-.008-.08-.024-.21-.024-.262-.074-2.745 2.076-5.176 2.096-5.197.48-.495.578-.886.576-1.13 0-.123-.095-.28-.128-.322-.17-.21-.356-.317-.547-.317-.204 0-.372.122-.475.223-.076.08-.15.227-.17.275-.426.99-1.837 2.988-1.85 3.007-2.69 3.7-4.56 3.983-5.07 3.983-.126 0-.19-.013-.194-.013-.345-.068-.523.08-.533.427-.015.837.78.95.795.954 1.26.085 2.586-1.094 3.25-1.778.065-.056.147-.14.24-.23.217-.222.546-.55.687-.55.015 0 .025.002.03.018.08.184-.023.462-.026.474-.772 2.776.15 3.177.18 3.188.154.094.342.138.557.138.593 0 1.256-.348 1.512-.496.067-.04.2-.107.244-.13 1.08-.544 2.005-1.58 2.26-1.88.036-.04.08-.085.09-.095.107-.076.2-.118.27-.118.19 0 .227.31.227.31.104 1.787 1.126 1.955 1.438 1.965h.02c.05 0 .11-.003.127-.01 3.07-.465 4.216-6.114 4.262-6.35.103-.35.352-.522.755-.522.45 0 .96.222 1.155.32.027.01.066.024.11.045.046.022.097.045.124.06.29.146.457.338.51.583.102.543-.398 1.2-.705 1.55l-.454.54c-1.192 1.627-1.292 2.397-1.245 2.716.02.14.114.245.134.266.212.223.452.335.705.335.416 0 .77-.307.946-.492.02-.017.107-.13.168-.228.038-.06.068-.123.083-.153 1.09-2.095 2.58-3.292 3.01-3.605.05-.04.133-.093.16-.106 1.083-.627 1.745-.903 2.147-.903.25 0 .392.11.456.344.226.915-.978 3.365-.99 3.396-.02.045-.476 1.086-.083 1.69.178.27.496.416.947.416l.06-.002c.217-.006.453-.038.725-.104.036-.008.13-.038.193-.06.35-.145 1.655-.75 3.716-2.443v.002c.01-.007.038-.027.057-.045l.13-.112c.542-.52.366-1.016.358-1.033-.196-.578-.494-.866-.887-.866m-27.1-7.56c-.28-.45-.67-.705-1.13-.743-.077-.004-.158-.01-.245-.01-.342 0-.99.063-1.44.48-.022.02-.04.04-.057.06l-.025.026c-.1.133-.195.28-.274.43-.158.374-.2.84-.12 1.392.21 1.454.99 2.267 1.8 2.923.077.063.156.117.245.16.075.044.148.074.224.096.122.038.234.056.333.068.166.023.312.046.402.153.026-.057.064-.14.106-.24.754-1.925.824-3.76.182-4.793m2.025.643c-.69 6.942-5.233 9.94-6.61 10.69-.248.134-.66.312-.757.35-1.65.675-3.115 1.014-4.347 1.014-1.44 0-2.59-.46-3.42-1.36-1.724-1.88-1.48-5.09-1.474-5.123.753-8.923 6.93-10.834 8.802-11.21.024-.004.176-.032.332-.05.175-.02.352-.033.355-.033 1.94-.092 3.098.196 3.427.844.277.54-.134 1.118-.153 1.142-.225.336-.543.507-.95.507-.365 0-.707-.146-.878-.23-.05-.028-.182-.08-.23-.095-.893-.285-1.853-.296-2.842-.03-3.304 1.103-4.886 3.396-5.533 4.66-2.802 6.086.055 8.52.998 9.124.02.013.136.075.263.133.15.067.304.123.34.134.677.18 1.354.272 2.008.272 4.06 0 6.652-3.408 7.575-4.87.08-.123.154-.246.223-.363-.085.028-.172.054-.26.067-.058.01-.115.014-.174.014-.425 0-.727-.22-.74-.23-.46-.3-.863-.656-1.2-1.06-.397-.483-.7-1.036-.903-1.644-.398-1.062-.42-2.1-.068-3.08.766-2.552 3.005-2.947 3.03-2.95 1.073-.14 1.886.103 2.435.702.9.994.754 2.607.748 2.674m181.796 5.41c-.02-.228-.14-.767-.94-.8h-.046c-.045-.003-.11-.003-.146-.01-.486-.034-3.014-.22-4.955-.22h-.1c-.05 0-.212.003-.408.015-.405.026-.98.064-1.212.09-.785.08-1.93.203-2.95.364l-.515.085c-.314.055-.67.116-.733.13-.247.024-.747.075-1.362.075-1.005 0-1.886-.123-2.62-.37-.003 0-.084-.025-.18-.04-.088-.014-.195-.016-.22-.016-.222.02-.624.105-.86.456-.23.354-.233.883-.007 1.576.004.014.384 1.295-.198 2.304-.314.558-.867.93-1.633 1.117 0 0-.286.087-.62.087-.42 0-.726-.127-.904-.383-.29-.415-.25-1.158.127-2.21.133-.127 1.256-1.296.383-2.31-.035-.04-.178-.163-.284-.22-.154-.08-.388-.175-.65-.175-.555 0-1.256.417-1.448 2.387-.108.14-1.046 1.345-2.778 2.292-1.026.518-1.797.62-2.05.257-.175-.253-.135-.71.116-1.366.004-.016.43-1.27 1.065-2.05.087-.068.85-.652.81-1.24-.02-.262-.192-.48-.52-.654-.03-.016-.112-.06-.21-.092-.125-.033-.275-.046-.344-.026-.49.076-1.202.574-1.846 2.5-.48.12-.91.185-1.284.185-1.113 0-1.585-.536-1.898-1.062-.156-.835-.41-1.39-.766-1.65L167 98.96c-.018-.013-.03-.02-.044-.032l-.04-.02c-.095-.053-.2-.086-.3-.098-.247-.046-.474-.013-.67.102-.112.063-.187.136-.234.19-.02.023-.062.085-.09.146-.022.048-.036.1-.04.128-.062.275-.01.637.157 1.07.023.064.047.13.08.197 0 0 .022.056.07.125.067.13.15.256.246.37.084.107.377.383.574.56l.067.067c-.288.86-1.167 2.405-2.354 3.002-.002 0-.35.168-.674.168-.198 0-.347-.06-.44-.18-.163-.19-.19-.542-.09-1.042.003-.013.39-1.595 1.22-2.448.145-.053.26-.075.35-.092.225-.048.358-.076.54-.38.01-.016.213-.45.06-.748-.078-.138-.214-.227-.407-.258l-.143-.018-.027-.005c-.31-.04-.764.004-1.346.124-.018.006-.076.023-.147.04l-.117.034c-.103.028-.498.158-.563.185-1.244.47-4.08 1.625-5.308 2.806.193-.452.38-1.003.43-1.622l.008-.05c.008-.103.017-.208.017-.318 0-.025 0-.104-.006-.155-.005-.086-.06-.283-.37-.283-.15 0-.347.05-.58.14-.01.006-.75.244-.462 1.448.003.015.118 1.705-1.27 3.19-.017.015-.397.42-.28.854.08.304.38.537.89.695.016.003.11.026.17.026.134 0 .455-.05.565-.453.007-.025.045-.126.056-.143.022-.05.053-.1.08-.154.36-.62 2.034-2.597 4.03-3.795.727-.41 1.44-.688 2.122-.83-.197.375-.387.937-.56 1.434l-.057.17c-.028.065-.674 1.65-.056 2.74.295.52.822.837 1.576.942.01 0 .1.012.198.015.102 0 .215-.013.237-.018.56-.1 1.94-.583 2.83-2.885l.073-.2.01-.02.13-.4s.032-.107.073-.278l.03-.114c.018-.087.036-.177.06-.27l.015-.08c.03-.125.057-.25.085-.385.563.322 1.144.462 1.92.462.374 0 .793-.035 1.272-.104-.06.19-.11.375-.147.55-.017.07-.034.15-.056.237-.153.624-.407 1.666.088 2.3.347.442 1 .606 1.948.494.03-.004 2.468-.343 4.29-3.145-.038.484-.027 1.47.55 2.153.405.48 1.01.728 1.804.728.134 0 .272-.006.405-.02.15 0 3.697-.053 4.54-4.61.577-.12 6.594-1.388 9.03-1.388h.08c.344 0 3.4.038 5.414 1.342.01.01.094.06.202.06.212 0 .462-.174.49-.993v-.28m-44.315 1.167c-.06 0-.114-.045-.127-.053-.087-.074-.204-.112-.347-.112-.245 0-.48.107-.484.11-4.236 1.82-4.874 4.3-4.88 4.324-.1.393-.108.645-.114.844-.006.23-.012.398-.17.604-.02.026-.09.106-.153.15-.132.092-.344.205-.592.205-.14 0-.275-.038-.403-.108-.027-.017-.138-.104-.193-.194-.047-.073-.085-.18-.085-.184-.313-1.285 1.418-4.845 2.02-6.024-1.825 1.603-3.486 1.784-4.138 1.784-.057 0-.104-.003-.143-.006-.3-.013-.525-.03-.684-.053-.16-.022-.327-.048-.475-.07l-.303-.045c-.345.982-.86 1.81-1.527 2.45-.9.868-1.395 1.03-1.902 1.137h-.02c-.673.097-1.21.03-1.597-.197-.05-.028-.103-.063-.162-.114-.018-.014-.036-.034-.056-.053l-.014-.01c-.01-.01-.02-.018-.03-.03l-.016-.016c-.002 0-.01-.01-.02-.02-.197-.207-.34-.52-.41-.775-.048.035-.11.084-.183.137-.7.517-2.353 1.74-4.3 1.697-.22-.01-.41-.07-.46-.09-.22-.088-.36-.24-.43-.45-.228-.695.464-1.82.494-1.867 1.06-1.753 1.028-2.354.917-2.555-.065-.116-.17-.116-.173-.116l-.018-.005c-.037-.01-.073-.016-.11-.016-1.014 0-2.69 3.128-2.703 3.16-.413 1.065-.926 1.23-1.19 1.23-.147 0-.243-.048-.247-.05-.156-.103-.24-.245-.264-.427-.117-1.046 1.96-3.223 2.187-3.457.02-.248-.02-.422-.112-.527-.066-.08-.167-.113-.305-.113-.31 0-.71.184-.99.34-.076.042-.142.08-.193.113-.483.316-1.186 1.023-1.193 1.03l-.01.004c-2.67 2.896-3.604 3.628-3.924 3.807-.113.06-.177.06-.21.06-.025.005-.05.005-.073.005-.21 0-.37-.083-.472-.244-.507-.796.61-3.41.938-4.13-.672.334-1.36.41-1.838.41-.328 0-.568-.03-.67-.05-2.014 4-4.212 4.543-4.838 4.61-.1.012-.217.002-.245.002-.67-.072-1.13-.34-1.373-.783-.45-.83-.025-2.046.182-2.533-.354.23-.918.595-1.156.743l-.027.02c-3.172 2.19-5.043 2.65-6.06 2.65-.537 0-.88-.13-1.063-.233-.063-.038-.147-.1-.23-.173-.086-.084-.165-.166-.193-.196-1.362-1.53-.212-4.033.732-5.5-4.357 4.668-6.208 5.513-6.29 5.547-.62.362-1.6.68-2.266.74-.08.004-.16.007-.237.007-.165 0-.328-.016-.48-.048-.002 0-1.104-.134-1.02-1.383 0-.043.004-.103.024-.16.07-.197.25-.286.485-.243.047.008.174.06.213.075.132.05.43.14.887.14 1.653 0 5.26-1.15 10.884-8.774-1.458.3-7.86.4-8.147.405-2.726-.058-3.706-.547-4.05-.945-.18-.21-.167-.372-.166-.393.01-.857.434-.987.687-.987.116 0 .222.025.29.048.068.02.128.088.143.11.337.472 2.022.89 2.04.896.805.217 1.863.326 3.15.326 3.018 0 6.38-.607 6.762-.678 1.74-4.33 3.155-4.91 3.687-4.956.02-.002.08-.005.145 0h.016c.035 0 .1.005.16.015.063.01.125.026.16.033l.02.006c.36.085.58.267.65.537.282 1.105-2.084 3.406-2.72 4.007 2.787-.338 5.02-.41 6.41-.41 1.162 0 1.822.053 1.827.053.703.065 1.146.27 1.312.612.2.402-.042.864-.157 1.042-.03.047-.08.104-.097.12-.127.104-.257.158-.39.158-.403 0-.694-.486-.773-.632-.006-.008-.025-.025-.033-.028-.597-.285-1.475-.425-2.613-.425-2.716 0-6.08.826-6.4.903-3.222 4.827-3.908 7.012-3.906 7.997v.03c.003.056.01.106.012.152.033.21.2.595.897.694.03.005.157.01.195.01.588-.01 1.185-.1 1.784-.26.26-.07.538-.166.833-.27 1.62-.605 3.097-1.433 3.963-2.21.64-.508.856-1.144.86-1.15.675-2.678 2.22-2.54 2.605-2.46.08.015.19.062.224.08.394.197.604.466.624.79.065.975-1.6 2.123-1.67 2.173-1.877 1.417-1.402 2.594-1.217 2.92.027.04.07.09.083.097.23.2.484.304.748.304 1.51 0 3.137-3.157 3.37-3.617-1.608-.944-1.04-2.112-1.035-2.125.313-.525.74-.636 1.044-.636.08 0 .16.01.236.022.067.014.158.047.18.06.87.45.753 1.557.71 1.835.09.022.188.03.295.03 1.047 0 2.676-.88 2.87-.99.507-1.115 1.233-1.3 1.524-1.322.034-.002.117-.007.192-.002.084.004.163.012.18.012.675.08.682.512.682.532.146 1.232-1.736 1.84-1.962 1.907-.707.826-.882 2.14-.92 2.62 3.395-3.607 5.003-4.454 5.662-4.636.03-.008.22-.057.36-.072.072-.01.177-.015.262-.007.077.005.143.022.16.028.623.165.582 1.114.528 1.554.68-.718 1.3-1.082 1.848-1.082.692 0 1.005.568 1.02.595.51.928-.197 2.344-.71 3.38-.28.562-.547 1.095-.478 1.298.008.034.027.054.058.07.13.062.28.096.462.096.555 0 1.394-.315 2.643-1.002.147-.08.297-.162.454-.253.064-.66.403-1.32.677-1.76l.087-.138.135-.2.073-.097c.06-.08.196-.23.196-.23l.208-.226c.5-.47.947-.57 1.142-.593h.002c.004 0 .052-.01.13-.01.126 0 .297.03.42.165.11.124.152.308.125.548l-.006.03c-.06.583-.64 1.366-1.715 2.332.046.04.126.1.23.16.173.098.45.215.81.215.573 0 1.158-.297 1.737-.89.308-.318.617-.72.915-1.195-.934-.335-1.255-.88-1.357-1.287-.117-.45.006-.823.01-.84.287-1.075 1.083-1.23 1.536-1.23.257 0 .44.048.45.05.38.125.62.307.734.562.195.42-.004.944-.194 1.414.028.015.06.024.097.037.106.038.244.085.364.12.1.025.233.054.344.072.105.012.194.02.23.024 2.185.162 5.25-2.433 5.58-2.723.047-.035.128-.054.16-.054.194.01.28.11.32.19.323.643-1.057 2.916-1.58 3.735 2.55-1.804 4.35-2.753 5.23-2.753.366 0 .495.17.54.27.02.062.03.128.036.153.08.444.035.77-.136.977-.16.195-.395.217-.482.217"/><path d="M174.475 34.154c0-1.014-.626-1.854-1.182-2.597-.475-.635-.925-1.23-.925-1.84 0-.833.468-1.367 1.19-1.367.36 0 .658.136.943.27.3.14.606.28.98.28.503 0 .95-.53.95-.956 0-.51-.54-1.04-1.45-1.04-2.08 0-3.933 2.358-3.933 4.214 0 1.013.618 1.803 1.164 2.497.438.56.82 1.042.82 1.54 0 .828-.773 1.33-1.514 1.33-.738 0-1.26-.466-1.672-.842-.312-.275-.58-.515-.865-.515-.403 0-.493.85-.493 1.15 0 .48.987 1.277 2.116 1.277 1.71 0 3.873-1.603 3.873-3.4M129.07 21.077c-.043 0-.09.046-.09.086v.5c0 .037.024.067.06.082l.31.03.388.037c.505.08.64.17.64.422 0 .425-.48 1.763-1.138 3.617l-.59 1.67c-.512 1.474-1.3 3.536-2 5.354-.83 2.17-1.487 3.883-1.487 4.11 0 .275.15.343.76.343.675 0 .978-.106 1.045-.36 1.163-3.843 4.375-8.228 6.027-8.228.522 0 .71.18.71.704 0 .854-.723 2.456-1.422 4.01-.616 1.366-1.2 2.66-1.2 3.27 0 .564.253.853.756.853 1.65 0 2.887-1.48 3.884-2.668l.14-.17.023-.058-.027-.058-.34-.403c-.004-.015-.026-.026-.045-.033-.023-.002-.054.004-.074.024-.56.594-1.513 1.485-1.78 1.52-.075.007-.124 0-.152-.03-.037-.036-.043-.115-.027-.26.017-.123.194-.545.435-1.127.63-1.51 1.68-4.03 1.68-5.522 0-1.197-.57-1.883-1.564-1.883-2.01 0-3.63 2.294-4.406 3.394-.18.257-.35.497-.393.508-.013 0-.025-.006-.03-.01-.032-.05.08-.313.286-.786.217-.504.546-1.267.995-2.44 1.51-3.94 2.15-6.048 2.15-6.226 0-.233-.22-.264-.432-.264h-3.086zm-4.413 14.055c.01-.023.007-.065-.013-.09 0-.004-.345-.365-.345-.365-.007-.017-.03-.032-.058-.036-.017 0-.04.006-.05.02.003 0-.04.035-.04.035-.623.577-1.832 1.558-2.917 1.63-.413.034-.804-.09-1.095-.35-.355-.31-.56-.806-.596-1.434-.07-1.623 1.31-4.085 2.688-5.53.74-.776 1.42-1.2 1.916-1.2.574 0 .936.424 1.286.84.306.357.594.7.995.7.16 0 .332-.083.46-.215.146-.155.22-.35.212-.557-.028-.635-.615-1.648-2.064-1.672-1.66-.028-3.725.98-5.27 2.57-1.468 1.514-2.233 3.307-2.15 5.045.064 1.463.854 3.023 2.887 3.023 2.042 0 3.85-1.83 4.15-2.41m26.78-3.726c-.04.087-.16.316-.187.312-.01 0-.028-.005-.028-.005.003 0 .005-.08.005-.08.008-.095.11-.52.238-1.058.244-1.023.58-2.422.58-2.82 0-.527-.287-.815-.808-.815-1.096 0-2.753 1.804-3.33 2.77-.01 0-.02.02-.02.036-.003.002-.003.008-.003.008 0 .022.01.04.024.055l.327.34c.007.02.033.035.062.035.027 0 .053-.016.066-.04l.098-.108.083-.107c.373-.467 1.146-1.44 1.545-1.44.216 0 .337.222.337.607 0 .97-1.066 3.924-1.77 5.88-.403 1.105-.69 1.906-.69 2.06 0 .214.08.312.27.312h.916c.194 0 .257-.12.388-.41.008-.013.456-1.08.707-1.6 1.823-3.72 2.826-5.624 3.59-6.366.51-.495.87-.715 1.132-.7.203.01.33.164.464.325.145.18.296.36.562.38.186.01.364-.057.507-.193.23-.215.36-.584.36-.988 0-.68-.473-.92-.878-.92-1.667 0-2.9 1.227-4.546 4.524m-13.038 3.54c0-3.004 2.386-7.177 4.735-7.177.776 0 1.226.457 1.226 1.255 0 1.238-3.26 6.942-5.29 6.942-.426 0-.673-.166-.673-1.02m7.3-8.243c-.145.047-.23.177-.31.304-.098.147-.194.29-.367.29-.152 0-.308-.035-.486-.073-.24-.05-.547-.114-.957-.114-4.604 0-7.018 6.194-7.018 8.332 0 1.453.8 2.1 1.59 2.1.982 0 2.32-.33 4.01-2.926 0 0 .375-.63.42-.63.025 0 .034 0 .044.01.016.018.022.057 0 .113l-.133.313c-.213.46-.604 1.313-.604 2.094 0 .373.09.65.27.83.155.153.377.228.66.225 1.598-.028 2.98-2.088 3.5-2.863-.005.005.02-.04.02-.04l-.023-.06-.348-.412c-.048-.036-.092-.036-.124 0l-.354.436c-.473.59-1.06 1.323-1.42 1.323-.08 0-.134-.014-.162-.047-.044-.046-.056-.133-.046-.308.026-.5.996-3.05 1.777-5.098.574-1.513 1.074-2.82 1.092-3.032 0-.048-.006-.208-.15-.274h.004l-.624-.42c-.005-.005-.03-.016-.03-.016-.074-.037-.16-.083-.23-.052m21.797.864c.525 0 .89.36.89.876 0 1.27-1.463 2.014-4.008 2.06.46-.856 1.85-2.936 3.118-2.936m-6.805 7.082c0 1.714 1.117 2.906 2.717 2.906 1.89 0 3.88-1.8 4.355-2.42.025-.033.016-.078-.008-.098h.003l-.312-.376c-.04-.03-.09-.032-.117-.012l-.26.188c-.622.466-1.778 1.33-2.634 1.33-1.057 0-1.71-.667-1.71-1.752 0-1.312.64-2.292 1.11-3.005 0 0 .044-.068.06-.087.024 0 .175.01.175.01l.985.035c1.72 0 4.926-.822 4.926-2.795 0-.81-.75-1.67-2.144-1.67-2.95 0-7.146 4.005-7.146 7.743m-.86.124c.028-.04.013-.078.007-.093-.007-.02-.36-.46-.36-.46-.017-.02-.04-.028-.063-.028-.022 0-.043.007-.06.025l-.12.133c-.895.99-1.392 1.535-1.802 1.56-.046 0-.113-.007-.166-.062-.062-.06-.093-.168-.082-.3.025-.555.926-3.147 2.748-7.932l1.327-3.425c.693-1.787 1.043-2.68 1.044-2.807.005-.075-.016-.14-.055-.185-.065-.07-.182-.102-.364-.102h-3.092c-.044 0-.082.033-.09.08l-.016.497c0 .04.024.08.063.084l.688.062c.442.072.62.22.607.507-.015.433-2.01 5.38-2.01 5.38-1.072 2.665-2.877 7.296-2.933 8.38-.025.486.09.874.33 1.127.214.224.52.337.913.337 1.258 0 2.513-1.565 3.343-2.604l.148-.18zm-42.198 9.302c0 1.446 1.147 2.235 2.272 2.818l.48.24c1.123.553 1.58 1.133 1.58 2 0 .986-.64 1.68-1.553 1.68-1.47 0-2.287-1.526-2.643-2.436l-.01-.023-.5.17.005.023c.156.932.334 1.938.454 2.333l.003.01.24.09.648.23c.436.162.982.254 1.505.254 2.037 0 3.466-1.265 3.466-3.078 0-1.704-1.3-2.477-2.276-2.916l-.386-.175c-1.246-.566-1.757-1.117-1.757-1.9 0-.774.47-1.553 1.51-1.553 1.225 0 1.69.96 1.98 1.898l.01.024.525-.1-.007-.027c-.13-.745-.226-1.408-.294-2.025l-.002-.017-.35-.11-.3-.09c-.383-.137-.902-.216-1.385-.216-1.893 0-3.22 1.19-3.22 2.9m7.04 2.414c0 2.474 1.72 4.972 5.563 4.972.99 0 2.29-.293 2.84-.45.27-.605.61-1.867.775-2.515l.005-.028-.472-.104-.01.015c-.776 1.574-1.503 2.432-3.14 2.432-2.122 0-3.547-1.893-3.547-4.71 0-1.97.93-4.264 3.55-4.264 1.538 0 2.376.66 2.805 2.203l.007.02.478-.064-.07-.672-.213-1.76h-.02l-.266-.064c-.516-.123-1.373-.325-2.447-.325-3.43 0-5.834 2.182-5.834 5.313m20.426-5.08H140.8v.47l.026.004c1.096.085 1.237.16 1.237 1.81v1.99h-4.523v-1.99c0-1.65.136-1.724 1.215-1.81l.025-.004v-.47h-4.358v.47l.022.004c1.273.09 1.36.208 1.36 1.81v5.26c0 1.585-.097 1.72-1.302 1.814l-.022.003v.466h4.357v-.468l-.025-.004c-1.13-.087-1.272-.167-1.272-1.813v-2.524h4.523v2.525c0 1.6-.09 1.72-1.36 1.814l-.025.003v.467h4.415v-.468l-.023-.004c-1.14-.09-1.265-.157-1.265-1.813v-5.26c0-1.6.084-1.718 1.294-1.808l.022-.004v-.47h-.027zm15.07 0h-3.484v.47l.544.04c.3.023.454.077.533.197.046.068.07.158.07.288 0 .157-.035.374-.113.672-.033.14-.862 3.404-1.504 5.586-.13-.306-2.614-7.116-2.614-7.116l-.007-.02h-.628s-2.243 7.04-2.276 7.136c-.103-.322-1.743-5.827-1.743-5.827-.062-.213-.09-.375-.09-.498 0-.1.018-.168.054-.222.08-.123.25-.165.52-.202l.484-.033v-.47h-4.118v.47l.025.004c.805.09 1.05.176 1.453 1.454l2.48 8.023h.71l2.334-7.017c.114.285 2.555 7 2.555 7l.007.016h.704l.004-.018c1.383-4.646 2.525-7.907 2.538-7.942.495-1.373.61-1.43 1.56-1.516l.026-.004v-.47h-.027zm4.47 2.635l-1.018-2.746h-.02l-.636.067-3.066 7.88c-.516 1.344-.682 1.4-1.598 1.52l-.02.004v.468h3.39v-.468l-.442-.05c-.327-.04-.492-.102-.57-.222-.037-.056-.053-.125-.053-.217 0-.14.044-.335.13-.6l.082-.24c.196-.593.416-1.27.59-1.655h2.753c.318.805.67 1.704.816 2.138.056.19.095.334.095.44 0 .06-.01.11-.037.15-.054.088-.19.147-.462.188l-.44.07v.465h4.01v-.468l-.024-.003c-.838-.09-1.054-.162-1.572-1.522l-1.91-5.2zm-1.884-.267c.012.036 1.132 3.19 1.157 3.255h-2.32c.022-.063 1.14-3.22 1.155-3.253h.006m9.5 2.493c1.664 0 2.62.818 2.62 2.244 0 1.528-1.03 2.072-1.99 2.072-.437.014-.677-.046-.832-.198-.24-.23-.283-.708-.283-1.46V46.27h.485zm-3.374-4.863h-.028v.47l.027.004c1.046.09 1.18.163 1.18 1.814v5.26c0 1.647-.146 1.726-1.274 1.812l-.02.003v.467h3.77c1.206 0 2.23-.212 2.893-.603.92-.554 1.365-1.304 1.365-2.294 0-1.36-.995-2.303-2.657-2.53.74-.16 2.09-.796 2.09-2.173 0-.78-.28-1.345-.852-1.73-.578-.366-1.188-.5-2.333-.5h-4.158zm2.888 1.35c0-.35 0-.6.112-.66.03-.018.185-.065.676-.065.44 0 1.87.128 1.87 1.802 0 1.194-.74 1.85-2.083 1.85h-.577v-2.926" fill="#FFF"/></svg>