<svg xmlns="http://www.w3.org/2000/svg" viewBox="2567 500 260 56">
  <defs>
    <style>
      .cls-1, .cls-3 {
        fill: none;
      }

      .cls-1 {
        stroke: #fff;
      }

      .cls-2, .cls-4 {
        fill: #fff;
      }

      .cls-2 {
        font-size: 25px;
        font-family: Arial, sans-serif;
        font-weight: 300;
        font-style: italic;
      }

      .cls-5 {
        stroke: none;
      }

    </style>
  </defs>
  <g id="Group_950" data-name="Group 950" transform="translate(1740)">
    <g id="Rectangle_1542" data-name="Rectangle 1542" class="cls-1" transform="translate(827 500)">
      <rect class="cls-5" width="260" height="56"/>
      <rect class="cls-3" x="0.5" y="0.5" width="259" height="55"/>
    </g>
    <text id="Watch_Video_" data-name="Watch Video &gt;" class="cls-2" transform="translate(898 513)"><tspan x="0" y="24">Watch Video</tspan></text>
    <g id="Group_794" data-name="Group 794" transform="translate(12 4)">
      <g id="Group_793" data-name="Group 793" transform="translate(837.625 510.239)">
        <path id="Path_2184" data-name="Path 2184" class="cls-3" d="M4,28.845H33.362V11H4Zm20.756-8.9-8.944,6.37V13.531Z" transform="translate(-2.313 -6.359)"/>
        <path id="Path_2185" data-name="Path 2185" class="cls-4" d="M40.944,23.412,32,17V29.782Z" transform="translate(-18.5 -9.828)"/>
        <path id="Path_2186" data-name="Path 2186" class="cls-4" d="M4,55.494a.739.739,0,0,0,.717.717h.3V54.9a.181.181,0,0,1,.169-.169h1.6a.181.181,0,0,1,.169.169v1.308h3.122V54.9a.181.181,0,0,1,.169-.169h1.6a.181.181,0,0,1,.169.169v1.308h3.122V54.9a.181.181,0,0,1,.169-.169h1.6a.181.181,0,0,1,.169.169v1.308H20.2V54.9a.181.181,0,0,1,.169-.169h1.6a.181.181,0,0,1,.169.169v1.308h3.122V54.9a.181.181,0,0,1,.169-.169h1.6a.181.181,0,0,1,.169.169v1.308h3.122V54.9a.181.181,0,0,1,.169-.169h1.6a.181.181,0,0,1,.169.169v1.308h.3a.739.739,0,0,0,.717-.717V53.3H4Z" transform="translate(-2.313 -30.815)"/>
        <path id="Path_2187" data-name="Path 2187" class="cls-4" d="M30.332,0H2.4A2.431,2.431,0,0,0,0,2.4V24.679a2.4,2.4,0,0,0,2.4,2.4H30.29a2.4,2.4,0,0,0,2.4-2.4V2.4A2.368,2.368,0,0,0,30.332,0Zm1.561,4.641h-.844V22.485h.844v3.8H.844v-3.8h.844V4.641H.844V.844H31.893Z"/>
        <path id="Path_2188" data-name="Path 2188" class="cls-4" d="M31.488,56.211h-.3v.3a.181.181,0,0,1-.169.169h-1.6a.181.181,0,0,1-.169-.169v-.3H26.131v.3a.181.181,0,0,1-.169.169h-1.6a.181.181,0,0,1-.169-.169v-.3H21.068v.3a.181.181,0,0,1-.169.169H19.3a.181.181,0,0,1-.169-.169v-.3H16.006v.3a.181.181,0,0,1-.169.169h-1.6a.181.181,0,0,1-.169-.169v-.3H10.859v.3a.181.181,0,0,1-.169.169h-1.6a.181.181,0,0,1-.169-.169v-.3H5.8v.3a.181.181,0,0,1-.169.169h-1.6a.181.181,0,0,1-.169-.169v-.3h-.3a.739.739,0,0,1-.717-.717V53.3H2v3.8H33.049V53.3h-.844v2.194A.739.739,0,0,1,31.488,56.211Z" transform="translate(-1.156 -30.815)"/>
        <path id="Path_2201" data-name="Path 2201" class="cls-4" d="M32.645,4h-.3V5.35a.181.181,0,0,1-.169.169h-1.6a.181.181,0,0,1-.169-.169V4H27.287V5.35a.181.181,0,0,1-.169.169h-1.6a.181.181,0,0,1-.169-.169V4H22.225V5.35a.181.181,0,0,1-.169.169h-1.6a.181.181,0,0,1-.169-.169V4H17.162V5.35a.181.181,0,0,1-.169.169h-1.6a.181.181,0,0,1-.169-.169V4H12.015V5.35a.181.181,0,0,1-.169.169h-1.6a.181.181,0,0,1-.169-.169V4H6.953V5.35a.181.181,0,0,1-.169.169h-1.6a.181.181,0,0,1-.169-.169V4h-.3A.739.739,0,0,0,4,4.717V6.953H33.362V4.717A.739.739,0,0,0,32.645,4Z" transform="translate(-2.313 -2.313)"/>
        <path id="Path_2202" data-name="Path 2202" class="cls-4" d="M2,5.8h.844V3.561a.739.739,0,0,1,.717-.717h.3V2.633a.193.193,0,0,1,.169-.211h1.6a.193.193,0,0,1,.169.211v.211H8.919V2.633a.181.181,0,0,1,.169-.169h1.6c.084-.042.169.042.169.169v.211h3.122V2.633a.181.181,0,0,1,.169-.169h1.6a.181.181,0,0,1,.169.169v.211h3.122V2.633a.181.181,0,0,1,.169-.169h1.6a.181.181,0,0,1,.169.169v.211h3.122V2.633a.267.267,0,0,1,.253-.211h1.6a.181.181,0,0,1,.169.169v.253h3.122V2.633a.193.193,0,0,1,.169-.211h1.6a.181.181,0,0,1,.169.169v.253h.3a.739.739,0,0,1,.717.717V5.8h.844V2H2Z" transform="translate(-1.156 -1.156)"/>
      </g>
    </g>
  </g>
</svg>
