<svg xmlns="http://www.w3.org/2000/svg" viewBox="5246 2618 36.691 61.152">
  <defs>
    <style>
      .cls-1 {
        fill: #415364;
      }
    </style>
  </defs>
  <g id="Group_945" data-name="Group 945" transform="translate(5246 2618)">
    <path id="Path_2257" data-name="Path 2257" class="cls-1" d="M32.934,0H3.684A3.481,3.481,0,0,0,0,3.242V57.911a3.481,3.481,0,0,0,3.684,3.242H33.008a3.528,3.528,0,0,0,3.684-3.242V3.242A3.6,3.6,0,0,0,32.934,0ZM20.851,56.732H15.988V51.869h4.863Zm11.936-8.915H3.758V3.758H32.786Z"/>
    <path id="Path_2258" data-name="Path 2258" class="cls-1" d="M14.946,31.524a1.359,1.359,0,0,0,.884-.368L28.355,18.63a1.25,1.25,0,1,0-1.768-1.768L14.062,29.387a1.2,1.2,0,0,0,0,1.768A1.22,1.22,0,0,0,14.946,31.524Z" transform="translate(-3.6 -4.337)"/>
    <path id="Path_2259" data-name="Path 2259" class="cls-1" d="M16.062,42.313a1.2,1.2,0,0,0,0,1.768,1.245,1.245,0,0,0,1.768,0L30.355,31.63a1.25,1.25,0,1,0-1.768-1.768Z" transform="translate(-4.126 -7.759)"/>
  </g>
</svg>
