<?xml version="1.0" encoding="utf-8"?>
<!-- Generator: Adobe Illustrator 19.1.0, SVG Export Plug-In . SVG Version: 6.00 Build 0)  -->
<svg version="1.1" id="Layer_1" xmlns="http://www.w3.org/2000/svg" xmlns:xlink="http://www.w3.org/1999/xlink" x="0px" y="0px"
	 viewBox="0 0 164 140" enable-background="new 0 0 164 140" xml:space="preserve" width="164" height="140">
<path fill="#000000" d="M110.7,70.8L70,99.8V41.7L110.7,70.8z M157.4,20.1v101.1c0,6-4.9,11-10.9,11H19.7c-6,0-11-4.9-11-11V20.1
	c0-6,4.9-10.9,11-10.9h126.7C152.5,9.2,157.4,14.1,157.4,20.1z M136.3,23c0,0.4,0.4,0.8,0.8,0.8h7.2c0.4,0,0.8-0.4,0.8-0.8v-7.2
	c0-0.4-0.4-0.8-0.8-0.8h-7.2c-0.4,0-0.8,0.4-0.8,0.8V23z M113.2,23c0,0.4,0.4,0.8,0.8,0.8h7.2c0.4,0,0.8-0.4,0.8-0.8v-7.2
	c0-0.4-0.4-0.8-0.8-0.8H114c-0.4,0-0.8,0.4-0.8,0.8V23z M90.2,23c0,0.4,0.4,0.8,0.8,0.8h7.2c0.4,0,0.8-0.4,0.8-0.8v-7.2
	c0-0.4-0.4-0.8-0.8-0.8H91c-0.4,0-0.8,0.4-0.8,0.8V23z M67.2,23c0,0.4,0.4,0.8,0.8,0.8h7.2c0.4,0,0.8-0.4,0.8-0.8v-7.2
	c0-0.4-0.4-0.8-0.8-0.8H68c-0.4,0-0.8,0.4-0.8,0.8V23z M44.1,23c0,0.4,0.4,0.8,0.8,0.8h7.2c0.4,0,0.8-0.4,0.8-0.8v-7.2
	c0-0.4-0.4-0.8-0.8-0.8h-7.2c-0.4,0-0.8,0.4-0.8,0.8V23z M21.1,23c0,0.4,0.4,0.8,0.8,0.8h7.2c0.4,0,0.8-0.4,0.8-0.8v-7.2
	c0-0.4-0.4-0.8-0.8-0.8h-7.2c-0.4,0-0.8,0.4-0.8,0.8V23z M29.9,118.5c0-0.4-0.4-0.8-0.8-0.8h-7.2c-0.4,0-0.8,0.4-0.8,0.8v7.2
	c0,0.4,0.4,0.8,0.8,0.8h7.2c0.4,0,0.8-0.4,0.8-0.8V118.5z M52.9,118.5c0-0.4-0.4-0.8-0.8-0.8h-7.2c-0.4,0-0.8,0.4-0.8,0.8v7.2
	c0,0.4,0.4,0.8,0.8,0.8h7.2c0.4,0,0.8-0.4,0.8-0.8V118.5z M76,118.5c0-0.4-0.4-0.8-0.8-0.8H68c-0.4,0-0.8,0.4-0.8,0.8v7.2
	c0,0.4,0.4,0.8,0.8,0.8h7.2c0.4,0,0.8-0.4,0.8-0.8V118.5z M99,118.5c0-0.4-0.4-0.8-0.8-0.8H91c-0.4,0-0.8,0.4-0.8,0.8v7.2
	c0,0.4,0.4,0.8,0.8,0.8h7.2c0.4,0,0.8-0.4,0.8-0.8V118.5z M122.1,118.5c0-0.4-0.4-0.8-0.8-0.8H114c-0.4,0-0.8,0.4-0.8,0.8v7.2
	c0,0.4,0.4,0.8,0.8,0.8h7.2c0.4,0,0.8-0.4,0.8-0.8V118.5z M145.1,118.5c0-0.4-0.4-0.8-0.8-0.8h-7.2c-0.4,0-0.8,0.4-0.8,0.8v7.2
	c0,0.4,0.4,0.8,0.8,0.8h7.2c0.4,0,0.8-0.4,0.8-0.8V118.5z M149.7,30.2H16.4v81.1h133.3V30.2z"/>
<g>
</g>
<g>
</g>
<g>
</g>
<g>
</g>
<g>
</g>
<g>
</g>
<g>
</g>
<g>
</g>
<g>
</g>
<g>
</g>
<g>
</g>
<g>
</g>
<g>
</g>
<g>
</g>
<g>
</g>
</svg>
